----------------------------------------------
Constantine .
----------------------------------------------

Screen Shots

[img]http://www.pix2links.com/images/62647709968110023448.jpg[/img]

[img]http://www.pix2links.com/images/04663619936645032308.jpg[/img]

[img]http://www.pix2links.com/images/50476872559244111255.jpg[/img]

[img]http://www.pix2links.com/images/01992703401692302115.jpg[/img]

[img]http://www.pix2links.com/images/90416270552430042296.jpg[/img]

[img]http://www.pix2links.com/images/89276476522364118340.jpg[/img]

[img]http://www.pix2links.com/images/87777023369059417952.jpg[/img]


----------------------------------------------- 

  Info.

Title         : Constantine
File size     :	699 Mb
Length        : 2 Hr 49 Sec
Gene          : Drama | Fantasy | Mystery
Imdb link     : http://www.imdb.com/title/tt0360486/
Imdb Rating   : 6.7/10
Languages     :	English (U.S.A)
Overall bit rate               : 810 Kbps
Release Date  :	25 February 2005 (India)


   Video.   


ID                             : 0
Format                         : MPEG-4 Visual
Format profile                 : Simple@L3
Format settings, BVOP          : No
Format settings, QPel          : No
Format settings, GMC           : No warppoints
Format settings, Matrix        : Default (H.263)
Codec ID                       : XVID
Codec ID/Hint                  : XviD
Duration                       : 2h 0mn
Bit rate                       : 669 Kbps
Width                          : 624 pixels
Height                         : 352 pixels
Display aspect ratio           : 16:9
Frame rate                     : 25.000 fps
Color space                    : YUV
Chroma subsampling             : 4:2:0
Bit depth                      : 8 bits
Scan type                      : Progressive
Compression mode               : Lossy
Bits/(Pixel*Frame)             : 0.122
Stream size                    : 578 MiB (83%)
Writing library                : XviD 1.1.2 (UTC 2006-11-01)
 


    Audio.    


ID                             : 1
Format                         : MPEG Audio
Format version                 : Version 1
Format profile                 : Layer 3
Mode                           : Joint stereo
Mode extension                 : MS Stereo
Codec ID                       : 55
Codec ID/Hint                  : MP3
Duration                       : 2h 0mn
Bit rate mode                  : Constant
Bit rate                       : 128 Kbps
Channel(s)                     : 2 channels
Sampling rate                  : 48.0 KHz
Compression mode               : Lossy
Stream size                    : 111 MiB (16%)
Alignment                      : Aligned on interleaves
Interleave, duration           : 24 ms (0.60 video frame)
Writing library                : LAME3.97

------------------------------------------------


SEED AFTER DOWNLAOD.


THANK YOU.


ENjOY..!!

